<?xml version="1.0" encoding="UTF-8" standalone="no"?>
<!-- Created with Inkscape (http://www.inkscape.org/) -->

<svg
   xmlns:dc="http://purl.org/dc/elements/1.1/"
   xmlns:cc="http://creativecommons.org/ns#"
   xmlns:rdf="http://www.w3.org/1999/02/22-rdf-syntax-ns#"
   xmlns:svg="http://www.w3.org/2000/svg"
   xmlns="http://www.w3.org/2000/svg"
   version="1.1"
   width="538.58264"
   height="464.88187"
   id="svg3498"
   xml:space="preserve"><metadata
     id="metadata3504"><rdf:RDF><cc:Work
         rdf:about=""><dc:format>image/svg+xml</dc:format><dc:type
           rdf:resource="http://purl.org/dc/dcmitype/StillImage" /><dc:title></dc:title></cc:Work></rdf:RDF></metadata><defs
     id="defs3502"><clipPath
       id="clipPath3516"><path
         d="m 272.48,59.091 94.349,0 0,87.149 -94.349,0 0,-87.149 z"
         id="path3518" /></clipPath></defs><g
     transform="matrix(1.25,0,0,-1.25,-9.0162503,709.77971)"
     id="g3506"><g
       transform="matrix(5.650862,0,0,5.650862,-1592.8454,-198.26804)"
       id="g3512"><g
         clip-path="url(#clipPath3516)"
         id="g3514"><g
           transform="translate(345.7144,112.7765)"
           id="g3520"><path
             d="m 0,0 c -0.68,-1.867 -2.746,-2.833 -4.616,-2.151 -1.866,0.68 -2.83,2.746 -2.15,4.614 l 6.353,17.457 c 0.681,1.867 2.746,2.83 4.614,2.15 1.868,-0.68 2.832,-2.746 2.152,-4.613 L 0,0 z"
             id="path3522"
             style="fill:#f58113;fill-opacity:1;fill-rule:nonzero;stroke:none" /></g><g
           transform="translate(296.84509,101.4778)"
           id="g3524"><path
             d="m 0,0 c -0.679,-1.867 -2.746,-2.83 -4.614,-2.151 -1.868,0.68 -2.831,2.746 -2.151,4.614 l 7.264,19.958 c 0.681,1.869 2.745,2.832 4.614,2.153 1.868,-0.68 2.832,-2.746 2.152,-4.616 L 0,0 z"
             id="path3526"
             style="fill:#4d88b5;fill-opacity:1;fill-rule:nonzero;stroke:none" /></g><g
           transform="translate(308.03239,101.4778)"
           id="g3528"><path
             d="m 0,0 c -0.679,-1.867 -2.746,-2.83 -4.614,-2.151 -1.868,0.68 -2.831,2.746 -2.151,4.614 l 7.264,19.958 c 0.681,1.869 2.746,2.832 4.615,2.153 1.868,-0.68 2.832,-2.746 2.151,-4.616 L 0,0 z"
             id="path3530"
             style="fill:#65a9d8;fill-opacity:1;fill-rule:nonzero;stroke:none" /></g><g
           transform="translate(319.2142,101.4778)"
           id="g3532"><path
             d="m 0,0 c -0.679,-1.867 -2.746,-2.83 -4.614,-2.151 -1.868,0.68 -2.831,2.746 -2.152,4.614 l 7.265,19.958 c 0.681,1.869 2.746,2.832 4.614,2.153 1.869,-0.68 2.832,-2.746 2.152,-4.616 L 0,0 z"
             id="path3534"
             style="fill:#72b38d;fill-opacity:1;fill-rule:nonzero;stroke:none" /></g><g
           transform="translate(330.39211,101.4778)"
           id="g3536"><path
             d="m 0,0 c -0.679,-1.867 -2.746,-2.83 -4.613,-2.151 -1.869,0.68 -2.832,2.746 -2.153,4.614 L 3.701,31.218 c 0.68,1.867 2.746,2.83 4.614,2.15 1.868,-0.679 2.831,-2.746 2.152,-4.613 L 0,0 z"
             id="path3538"
             style="fill:#d93f59;fill-opacity:1;fill-rule:nonzero;stroke:none" /></g><g
           transform="translate(283.6546,84.594803)"
           id="g3540"><path
             d="M 0,0 2.043,0 5.578,-9.429 9.129,0 l 2.043,0 0,-11.22 -1.414,0 0,9.334 -0.031,0 -3.504,-9.334 -1.272,0 -3.506,9.334 -0.031,0 0,-9.334 L 0,-11.22 0,0 z"
             id="path3542"
             style="fill:#4d88b5;fill-opacity:1;fill-rule:nonzero;stroke:none" /></g><g
           transform="translate(301.91251,77.569)"
           id="g3544"><path
             d="m 0,0 c -0.518,-0.376 -1.523,-0.394 -2.42,-0.55 -0.879,-0.156 -1.633,-0.471 -1.633,-1.461 0,-0.879 0.754,-1.194 1.57,-1.194 1.76,0 2.483,1.1 2.483,1.838 L 0,0 z M 2.17,-4.163 C 1.934,-4.304 1.635,-4.382 1.211,-4.382 c -0.691,0 -1.131,0.377 -1.131,1.256 -0.74,-0.865 -1.728,-1.256 -2.861,-1.256 -1.477,0 -2.686,0.658 -2.686,2.277 0,1.838 1.367,2.233 2.75,2.498 1.477,0.283 2.735,0.188 2.735,1.195 0,1.163 -0.96,1.352 -1.809,1.352 -1.131,0 -1.963,-0.346 -2.025,-1.539 l -1.336,0 c 0.078,2.01 1.634,2.717 3.441,2.717 1.461,0 3.047,-0.33 3.047,-2.231 l 0,-4.181 c 0,-0.629 0,-0.911 0.426,-0.911 0.109,0 0.234,0.016 0.408,0.079 l 0,-1.037 z"
             id="path3546"
             style="fill:#4d88b5;fill-opacity:1;fill-rule:nonzero;stroke:none" /></g><g
           transform="translate(305.29179,81.4991)"
           id="g3548"><path
             d="m 0,0 1.258,0 0,-1.289 0.03,0 c 0.567,1.006 1.477,1.477 2.641,1.477 2.137,0 2.798,-1.227 2.798,-2.971 l 0,-5.342 -1.336,0 0,5.498 c 0,0.993 -0.63,1.637 -1.651,1.637 -1.619,0 -2.405,-1.086 -2.405,-2.547 l 0,-4.588 L 0,-8.125 0,0 z"
             id="path3550"
             style="fill:#4d88b5;fill-opacity:1;fill-rule:nonzero;stroke:none" /></g><g
           transform="translate(317.5316,80.509003)"
           id="g3552"><path
             d="m 0,0 c -1.791,0 -2.482,-1.539 -2.482,-3.064 0,-1.604 0.724,-3.081 2.56,-3.081 1.825,0 2.436,1.556 2.436,3.144 C 2.514,-1.478 1.728,0 0,0 m -3.769,0.99 1.334,0 0,-1.099 0.032,0 c 0.44,0.894 1.478,1.287 2.592,1.287 2.499,0 3.741,-1.981 3.741,-4.274 0,-2.295 -1.227,-4.226 -3.709,-4.226 -0.833,0 -2.026,0.312 -2.624,1.271 l -0.032,0 0,-4.195 -1.334,0 0,11.236 z"
             id="path3554"
             style="fill:#4d88b5;fill-opacity:1;fill-rule:nonzero;stroke:none" /></g><g
           transform="translate(326.44209,74.364304)"
           id="g3556"><path
             d="M 0,0 C 1.4,0 2.531,1.1 2.531,3.064 2.531,5.043 1.4,6.145 0,6.145 -1.399,6.145 -2.532,5.043 -2.532,3.064 -2.532,1.1 -1.399,0 0,0 m 0,7.323 c 2.576,0 3.945,-1.869 3.945,-4.259 0,-2.372 -1.369,-4.242 -3.945,-4.242 -2.578,0 -3.944,1.87 -3.944,4.242 0,2.39 1.366,4.259 3.944,4.259"
             id="path3558"
             style="fill:#4d88b5;fill-opacity:1;fill-rule:nonzero;stroke:none" /></g><g
           transform="translate(339.59441,73.374405)"
           id="g3560"><path
             d="m 0,0 -1.412,0 -1.652,6.459 -0.032,0 L -4.731,0 l -1.445,0 -2.609,8.125 1.478,0 1.84,-6.649 0.031,0 1.633,6.649 1.461,0 1.697,-6.649 0.031,0 1.823,6.649 1.385,0 L 0,0 z"
             id="path3562"
             style="fill:#4d88b5;fill-opacity:1;fill-rule:nonzero;stroke:none" /></g><g
           transform="translate(348.62981,78.214005)"
           id="g3564"><path
             d="M 0,0 C -0.065,1.274 -1.022,2.295 -2.342,2.295 -3.741,2.295 -4.572,1.242 -4.668,0 L 0,0 z m 1.289,-2.262 c -0.362,-1.792 -1.651,-2.765 -3.473,-2.765 -2.592,0 -3.818,1.789 -3.897,4.273 0,2.434 1.602,4.227 3.817,4.227 2.877,0 3.756,-2.688 3.678,-4.652 l -6.082,0 c -0.045,-1.415 0.755,-2.671 2.531,-2.671 1.1,0 1.869,0.534 2.106,1.588 l 1.32,0 z"
             id="path3566"
             style="fill:#4d88b5;fill-opacity:1;fill-rule:nonzero;stroke:none" /></g><g
           transform="translate(351.37939,81.4991)"
           id="g3568"><path
             d="m 0,0 1.258,0 0,-1.715 0.031,0 c 0.645,1.305 1.539,1.949 2.984,1.903 l 0,-1.414 c -2.152,0 -2.937,-1.227 -2.937,-3.286 l 0,-3.613 L 0,-8.125 0,0 z"
             id="path3570"
             style="fill:#4d88b5;fill-opacity:1;fill-rule:nonzero;stroke:none" /></g><g
           transform="translate(357.3812,83.434998)"
           id="g3572"><path
             d="m 0,0 0.237,0 c 0.202,0 0.386,0.01 0.386,0.24 0,0.195 -0.166,0.229 -0.32,0.229 L 0,0.469 0,0 z m -0.227,0.652 0.567,0 c 0.348,0 0.512,-0.138 0.512,-0.422 0,-0.265 -0.168,-0.377 -0.387,-0.4 l 0.42,-0.65 -0.247,0 -0.395,0.634 -0.243,0 0,-0.634 -0.227,0 0,1.472 z M 0.26,-1.16 c 0.582,0 1.029,0.464 1.029,1.082 0,0.601 -0.447,1.068 -1.029,1.068 -0.584,0 -1.033,-0.467 -1.033,-1.068 0,-0.618 0.449,-1.082 1.033,-1.082 m 0,2.336 c 0.685,0 1.258,-0.544 1.258,-1.254 0,-0.725 -0.573,-1.266 -1.258,-1.266 -0.685,0 -1.262,0.541 -1.262,1.266 0,0.71 0.577,1.254 1.262,1.254"
             id="path3574"
             style="fill:#4d88b5;fill-opacity:1;fill-rule:nonzero;stroke:none" /></g></g></g></g></svg>