<?xml version="1.0" encoding="UTF-8" standalone="no"?>
<!-- Generator: Adobe Illustrator 13.0.1, SVG Export Plug-In  -->

<svg
   xmlns:dc="http://purl.org/dc/elements/1.1/"
   xmlns:cc="http://creativecommons.org/ns#"
   xmlns:rdf="http://www.w3.org/1999/02/22-rdf-syntax-ns#"
   xmlns:svg="http://www.w3.org/2000/svg"
   xmlns="http://www.w3.org/2000/svg"
   xmlns:sodipodi="http://sodipodi.sourceforge.net/DTD/sodipodi-0.dtd"
   xmlns:inkscape="http://www.inkscape.org/namespaces/inkscape"
   version="1.1"
   x="0px"
   y="0px"
   width="119px"
   height="19px"
   viewBox="-0.003 -0.906 119 19"
   enable-background="new -0.003 -0.906 119 19"
   xml:space="preserve"
   id="svg2"
   inkscape:version="0.48.5 r10040"
   sodipodi:docname="Randstad_Logo.svg"
   inkscape:export-filename="D:\Documents\Mod pour Euro Truck Simulator 2\Prefabs\Recruitement Agency\Compagny Logo\src\Randstad_Logo.png"
   inkscape:export-xdpi="250.77614"
   inkscape:export-ydpi="250.77614"><metadata
   id="metadata10"><rdf:RDF><cc:Work
       rdf:about=""><dc:format>image/svg+xml</dc:format><dc:type
         rdf:resource="http://purl.org/dc/dcmitype/StillImage" /><dc:title></dc:title></cc:Work></rdf:RDF></metadata><sodipodi:namedview
   pagecolor="#ffffff"
   bordercolor="#666666"
   borderopacity="1"
   objecttolerance="10"
   gridtolerance="10"
   guidetolerance="10"
   inkscape:pageopacity="0"
   inkscape:pageshadow="2"
   inkscape:window-width="1920"
   inkscape:window-height="1017"
   id="namedview8"
   showgrid="false"
   inkscape:zoom="8.3426716"
   inkscape:cx="51.021254"
   inkscape:cy="4.7559101"
   inkscape:window-x="-8"
   inkscape:window-y="-8"
   inkscape:window-maximized="1"
   inkscape:current-layer="a3031" />
<defs
   id="defs4">
</defs>
<g
   id="g2987"
   transform="translate(-0.11986568,-1.3185225)"><g
     id="g3026"><a
       id="a3031"
       transform="translate(-0.11986565,1.4383885)"><path
         style="fill:#0e78be;fill-rule:evenodd"
         inkscape:connector-curvature="0"
         id="path6"
         d="m 89.221729,9.0809852 c 1.058,0 1.932,0.411 2.588,1.1759998 0.645,0.88 0.996,1.878 0.996,3.054 0,1.233 -0.352,2.23 -0.996,3.053 -0.656,0.823 -1.53,1.234 -2.588,1.234 -0.996,0 -1.883,-0.352 -2.527,-1.115 -0.582,-0.766 -0.936,-1.82 -0.936,-3.055 0,-1.232 0.354,-2.291 0.936,-3.113 0.644,-0.8229998 1.531,-1.2339998 2.527,-1.2339998 m 5.808,10.1039998 c -0.108,-0.647 -0.17,-6.461 -0.17,-17.3869998 l -2.114,0 0,7.401 c -0.352,-0.588 -0.887,-1.059 -1.592,-1.41 -0.644,-0.354 -1.408,-0.588 -2.223,-0.588 -1.592,0 -2.94,0.588 -3.937,1.645 -0.996,1.117 -1.47,2.5839998 -1.47,4.4649998 0,1.938 0.412,3.406 1.348,4.522 0.936,1.058 2.297,1.587 3.998,1.587 0.766,0 1.53,-0.176 2.283,-0.529 0.705,-0.41 1.301,-0.882 1.714,-1.586 0,0.471 0.048,1.058 0.109,1.88 z M 48.80073,9.0809852 c 1.009,0 1.883,0.411 2.526,1.1759998 0.656,0.88 0.948,1.878 0.948,3.054 0,1.233 -0.292,2.23 -0.948,3.053 -0.704,0.823 -1.518,1.234 -2.575,1.234 -1.057,0 -1.884,-0.352 -2.526,-1.115 -0.596,-0.766 -0.948,-1.82 -0.948,-3.055 0,-1.232 0.353,-2.291 0.948,-3.113 0.643,-0.8229998 1.469,-1.2339998 2.575,-1.2339998 z m 5.759,10.1039998 c -0.109,-0.647 -0.17,-6.461 -0.17,-17.3869998 l -2.114,0 0,7.401 c -0.353,-0.588 -0.887,-1.059 -1.592,-1.41 -0.704,-0.354 -1.409,-0.588 -2.235,-0.588 -1.58,0 -2.928,0.588 -3.937,1.645 -0.996,1.117 -1.458,2.5839998 -1.458,4.4649998 0,1.938 0.401,3.406 1.41,4.522 0.874,1.058 2.223,1.587 3.936,1.587 0.754,0 1.52,-0.176 2.284,-0.529 0.705,-0.41 1.3,-0.882 1.701,-1.586 0,0.471 0.061,1.058 0.122,1.88 z m 8.809,-10.2219998 2.709,0 0,6.5209998 c 0,1.352 0.291,2.291 0.936,2.938 0.596,0.587 1.471,0.881 2.588,0.881 0.535,0 1.179,-0.118 1.883,-0.294 l 0,-1.822 c -0.474,0.235 -0.887,0.354 -1.3,0.354 -0.583,0 -1.057,-0.176 -1.409,-0.587 -0.353,-0.354 -0.583,-1 -0.583,-1.938 l 0,-6.0529998 3.171,0 0,-1.584 -3.171,0 0,-3.468 -2.114,0.765 0,2.703 -2.709,0 0,1.584 z m -4.751,8.5199998 c -0.887,0 -1.762,-0.236 -2.758,-0.822 l -0.122,1.937 c 0.936,0.469 1.993,0.705 3.172,0.705 1.239,0 2.175,-0.294 3.001,-0.94 0.813,-0.647 1.228,-1.526 1.228,-2.646 0,-1.291 -0.705,-2.289 -2.054,-2.993 l -1.823,-0.94 c -0.765,-0.411 -1.178,-0.883 -1.178,-1.526 0,-0.2939998 0.182,-0.6469998 0.534,-0.9399998 0.292,-0.354 0.826,-0.471 1.531,-0.471 0.753,0 1.519,0.235 2.345,0.646 l 0.23,-1.82 c -1.057,-0.411 -1.932,-0.59 -2.697,-0.59 -1.409,0 -2.405,0.354 -3.171,0.941 -0.704,0.646 -1.057,1.469 -1.057,2.5839998 0,0.587 0.17,1.059 0.522,1.527 0.291,0.531 0.826,0.939 1.531,1.293 l 1.992,1.116 c 0.656,0.354 0.947,0.765 0.947,1.291 0,0.528 -0.182,0.942 -0.596,1.235 -0.399,0.294 -0.934,0.413 -1.577,0.413 z m -27.263,1.702 2.125,0 0,-5.581 c 0,-1.645 0.354,-2.878 1.058,-3.582 0.644,-0.7049998 1.409,-1.0589998 2.284,-1.0589998 0.887,0 1.531,0.293 2.004,0.883 0.401,0.5859998 0.645,1.5259998 0.645,2.8779998 l 0,6.461 2.175,0 0,-6.403 c 0,-2.113 -0.413,-3.5819998 -1.239,-4.4039998 -0.826,-0.822 -1.822,-1.234 -3.001,-1.234 -0.813,0 -1.579,0.176 -2.284,0.529 -0.705,0.352 -1.287,0.822 -1.762,1.467 l 0,-1.76 -2.053,0 c 0,0.645 0,1.291 0.049,1.938 l 0,9.8669998 z m 34.545333,-32.782494 -6.524,0 c -0.353,0 -0.705,0.115 -0.936,0.41 l -3.936,3.8770002 c -0.304,0.293 -0.413,0.586 -0.413,0.939 0,3.818 0,5.992 0,6.579 0.875,-0.058 1.762,-0.058 2.697,0 -0.061,-0.587 -0.061,-1.763 -0.061,-3.468 0,-1.702 0,-2.875 0,-3.582 0,-0.646 0.243,-1.1740002 0.596,-1.5850002 0.413,-0.354 0.936,-0.587 1.579,-0.587 0.644,0 6.998,0 6.998,0 z m -24.906,0 0,2.584 c 0,0 6.342,0 6.986,0 0.705,0 1.239,0.233 1.592,0.587 0.401,0.411 0.583,0.9380002 0.583,1.5850002 0,0.707 0,1.88 0,3.582 0,1.705 0,2.881 -0.061,3.468 0.935,-0.058 1.822,-0.058 2.697,0 0,-0.587 0,-2.761 0,-6.579 0,-0.354 -0.109,-0.646 -0.401,-0.939 l -3.936,-3.8780002 c -0.243,-0.295 -0.535,-0.41 -0.887,-0.41 z m 39.116666,27.140494 c -0.049,0.179 -0.049,0.414 -0.049,0.707 0,1.116 -0.304,1.998 -0.947,2.527 -0.645,0.587 -1.41,0.881 -2.346,0.881 -0.705,0 -1.238999,-0.176 -1.651999,-0.529 -0.4,-0.352 -0.644,-0.822 -0.644,-1.352 0,-0.53 0.243,-0.998 0.644,-1.352 0.825999,-0.764 2.526999,-1.057 4.993999,-0.882 z m 2.064,5.642 c -0.061,-0.587 -0.061,-2.996 -0.061,-7.283 0,-1.763 -0.412,-3.0559998 -1.3,-3.6999998 -0.874,-0.707 -1.992,-1.059 -3.341,-1.059 -1.349,0 -2.647999,0.352 -3.813999,0.998 l 0,1.9369998 c 1.057,-0.7619998 2.174,-1.1729998 3.461999,-1.1729998 1.228,0 2.114,0.411 2.588,1.2329998 0.231,0.469 0.353,1.056 0.353,1.878 -3.063,-0.233 -5.175999,0.118 -6.401999,1.058 -0.948,0.705 -1.41,1.588 -1.41,2.643 0,1.119 0.353,1.998 1.057,2.646 0.754,0.646 1.701,0.997 2.928999,0.997 1.713,0 3.062,-0.704 3.997,-2.173 0,0.589 0,1.235 0,1.998 z m -54.574999,-5.642 c -0.061,0.179 -0.061,0.414 -0.061,0.707 0,1.116 -0.292,1.998 -0.936,2.527 -0.644,0.587 -1.47,0.881 -2.357,0.881 -0.705,0 -1.288,-0.176 -1.701,-0.529 -0.413,-0.352 -0.583,-0.822 -0.583,-1.352 0,-0.53 0.231,-0.998 0.644,-1.352 0.827,-0.764 2.467,-1.057 4.994,-0.882 z m 2.053,5.642 c -0.061,-0.587 -0.109,-2.996 -0.109,-7.283 0,-1.763 -0.413,-3.0559998 -1.3,-3.6999998 -0.814,-0.707 -1.993,-1.059 -3.341,-1.059 -1.361,0 -2.588,0.352 -3.766,0.998 l 0,1.9369998 c 0.996,-0.7619998 2.175,-1.1729998 3.414,-1.1729998 1.288,0 2.175,0.411 2.576,1.2329998 0.304,0.469 0.413,1.056 0.413,1.878 -3.05,-0.233 -5.164,0.118 -6.403,1.058 -0.936,0.705 -1.41,1.588 -1.41,2.643 0,1.119 0.353,1.998 1.057,2.646 0.705,0.646 1.701,0.997 2.94,0.997 1.701,0 3.001,-0.704 3.997,-2.173 0,0.589 0,1.235 0,1.998 z m -14.506,0 0,-5.17 c 0,-1.88 0.474,-3.289 1.409,-4.0519998 0.887,-0.882 2.053,-1 3.354,-0.471 l 0,-2.056 c -2.236,-0.586 -3.876,0.119 -4.884,2.174 0,-0.822 0,-1.586 -0.049,-2.23 l -2.065,0 c 0.061,1.232 0.061,5.1699998 0.061,11.8059998 l 2.174,0 z"
         clip-rule="evenodd"
         sodipodi:nodetypes="ccscscscccccccscscsccccscscscscscccccscscsccccccscsccscsccccccccccsccscsccscsccscscccscsccscscsccsssccccccccsccsccsscsccccscssccsccsccscscscccscsccscccscsccccscscscccscsccscccscsccccsccccccccc" /></a></g></g>
</svg>