<?xml version="1.0" encoding="UTF-8" standalone="no"?>
<!-- Generator: Adobe Illustrator 13.0.0, SVG Export Plug-In . SVG Version: 6.00 Build 14948)  -->

<svg
   xmlns:dc="http://purl.org/dc/elements/1.1/"
   xmlns:cc="http://creativecommons.org/ns#"
   xmlns:rdf="http://www.w3.org/1999/02/22-rdf-syntax-ns#"
   xmlns:svg="http://www.w3.org/2000/svg"
   xmlns="http://www.w3.org/2000/svg"
   xmlns:sodipodi="http://sodipodi.sourceforge.net/DTD/sodipodi-0.dtd"
   xmlns:inkscape="http://www.inkscape.org/namespaces/inkscape"
   version="1.1"
   id="Layer_1"
   x="0px"
   y="0px"
   width="218px"
   height="198px"
   viewBox="0 0 218 198"
   enable-background="new 0 0 218 198"
   xml:space="preserve"
   inkscape:version="0.48.5 r10040"
   sodipodi:docname="Gulf_logo.svg"><metadata
   id="metadata31"><rdf:RDF><cc:Work
       rdf:about=""><dc:format>image/svg+xml</dc:format><dc:type
         rdf:resource="http://purl.org/dc/dcmitype/StillImage" /></cc:Work></rdf:RDF></metadata><defs
   id="defs29" /><sodipodi:namedview
   pagecolor="#ffffff"
   bordercolor="#666666"
   borderopacity="1"
   objecttolerance="10"
   gridtolerance="10"
   guidetolerance="10"
   inkscape:pageopacity="0"
   inkscape:pageshadow="2"
   inkscape:window-width="1920"
   inkscape:window-height="1017"
   id="namedview27"
   showgrid="false"
   inkscape:zoom="3.3712566"
   inkscape:cx="110.53707"
   inkscape:cy="110.50835"
   inkscape:window-x="-8"
   inkscape:window-y="-8"
   inkscape:window-maximized="1"
   inkscape:current-layer="Layer_1" />
<path
   fill="#1F3075"
   d="M215.79,114.709c1.156-8.23,1.208-20.591,0.125-30.067c-1.45-14.764-10.805-18.863-14.711-19.934  c-6.988-17.987-19.099-33.374-35.069-44.533C149.585,8.61,130.097,2.498,109.78,2.498S69.975,8.61,53.424,20.175  c-15.97,11.159-28.081,26.547-35.068,44.533c-3.907,1.071-13.262,5.171-14.714,19.957c-1.081,9.453-1.029,21.813,0.128,30.044  c1.14,12.072,8.364,18.083,14.542,19.717c6.973,18.014,19.08,33.427,35.06,44.609c16.562,11.588,36.068,17.713,56.408,17.713  s39.846-6.125,56.408-17.713c15.98-11.182,28.087-26.595,35.06-44.608C207.426,132.792,214.65,126.781,215.79,114.709z"
   id="path3" />
<path
   d="M199.849,131.72c-0.496,0.103-0.905,0.452-1.084,0.926c-6.714,17.771-18.565,32.974-34.273,43.964  c-16.062,11.239-34.981,17.179-54.711,17.179c-19.731,0-38.65-5.94-54.712-17.179c-15.708-10.99-27.559-26.193-34.273-43.964  c-0.18-0.474-0.589-0.823-1.085-0.926c-5.357-1.108-11.977-6.313-13-17.336c-0.002-0.023-0.005-0.047-0.008-0.07  c-1.128-8.01-1.177-20.074-0.119-29.336c1.331-13.55,9.667-16.803,13.188-17.574c0.489-0.106,0.89-0.453,1.067-0.92  c6.73-17.741,18.584-32.916,34.28-43.883C71.17,11.385,90.071,5.457,109.78,5.457c19.708,0,38.61,5.928,54.661,17.144  c15.696,10.967,27.55,26.142,34.28,43.883c0.177,0.467,0.578,0.813,1.066,0.92c3.522,0.771,11.858,4.024,13.187,17.551  c1.061,9.286,1.012,21.35-0.116,29.36c-0.003,0.022-0.006,0.046-0.008,0.069C211.827,125.406,205.207,130.611,199.849,131.72z"
   id="path5"
   fill="#FFFFFF" />
<path
   fill="#EC5E04"
   d="M196.511,66.833c-13.338-34.555-47.14-59.097-86.731-59.097S36.387,32.278,23.049,66.833  C77.727,57.688,141.833,57.194,196.511,66.833z"
   id="path7" />
<path
   fill="#EC5E04"
   d="M196.511,132.413c-13.338,34.555-47.14,59.098-86.731,59.098s-73.393-24.542-86.731-59.098  C77.727,141.559,141.833,142.052,196.511,132.413z"
   id="path9" />
<rect
   x="144.545"
   y="79.139"
   fill="#1F3075"
   width="16.52"
   height="44.875"
   id="rect11" />
<path
   fill="#1F3075"
   d="M113.56,94.919h16.52v29.094h-16.52v-0.986c-3.205,1.973-11.588,2.219-13.561,2.219  s-15.533-1.726-15.533-12.082V94.919h16.52v13.561c-0.247,2.712,0.739,6.904,5.671,6.904c4.931,0,6.903-1.479,6.903-5.671V94.919z"
   id="path13" />
<path
   fill="#1F3075"
   d="M178.324,124.013v-17.506h-6.904V94.919h6.904v-7.397c0.247-4.931,2.712-9.123,10.109-9.123  s11.342,0.986,15.78,3.945l-0.247,8.63c-4.685-2.712-9.739-3.452-9.739,0.986v2.959h6.903v11.588h-6.903v17.506H178.324z"
   id="path15" />
<path
   fill="#1F3075"
   d="M46.413,105.274v-8.876h25.149v27.615h-16.52v-0.986c-3.206,0.986-9.246,0.953-12.451,0.986  c-11.835,0.123-27.738-7.274-27.738-25.519c0-18.246,17.382-26.383,28.971-26.383c11.588,0,20.341,3.329,24.286,5.794v9.616  c-5.424-1.726-10.602-4.191-17.506-4.191s-17.259,4.191-17.013,16.026c0.246,11.835,9.123,13.808,12.821,13.808  c3.698,0,7.396-0.863,8.629-2.589v-5.301H46.413z"
   id="path17" />




</svg>