<?xml version="1.0" encoding="UTF-8" standalone="no"?>
<svg
   xmlns:dc="http://purl.org/dc/elements/1.1/"
   xmlns:cc="http://creativecommons.org/ns#"
   xmlns:rdf="http://www.w3.org/1999/02/22-rdf-syntax-ns#"
   xmlns:svg="http://www.w3.org/2000/svg"
   xmlns="http://www.w3.org/2000/svg"
   xmlns:sodipodi="http://sodipodi.sourceforge.net/DTD/sodipodi-0.dtd"
   xmlns:inkscape="http://www.inkscape.org/namespaces/inkscape"
   viewBox="0 0 20.447284 73.780378"
   width="8"
   height="29"
   id="svg2"
   version="1.1"
   inkscape:version="0.91 r13725"
   sodipodi:docname="logo nokia pour téléphone.svg"
   inkscape:export-filename="C:\Users\Clark\Desktop\Nokia_wordmark.png"
   inkscape:export-xdpi="90"
   inkscape:export-ydpi="90">
  <metadata
     id="metadata10">
    <rdf:RDF>
      <cc:Work
         rdf:about="">
        <dc:format>image/svg+xml</dc:format>
        <dc:type
           rdf:resource="http://purl.org/dc/dcmitype/StillImage" />
        <dc:title></dc:title>
      </cc:Work>
    </rdf:RDF>
  </metadata>
  <defs
     id="defs8" />
  <sodipodi:namedview
     pagecolor="#ffffff"
     bordercolor="#666666"
     borderopacity="1"
     objecttolerance="10"
     gridtolerance="10"
     guidetolerance="10"
     inkscape:pageopacity="0"
     inkscape:pageshadow="2"
     inkscape:window-width="1920"
     inkscape:window-height="1017"
     id="namedview6"
     showgrid="false"
     inkscape:zoom="18.198083"
     inkscape:cx="0.20230317"
     inkscape:cy="16.509796"
     inkscape:window-x="-8"
     inkscape:window-y="-8"
     inkscape:window-maximized="1"
     inkscape:current-layer="svg2" />
  <path
     d="m 4.3850059,4.459927 0,-3.48372477 11.8475641,0 0,6.02507327 -8.8449753,6.9122865 8.8449753,0 0,3.483723 -11.8475641,0 0,-5.902982 8.9960091,-7.034376 -8.9960091,0 m 3.6637006,29.605342 c -1.6469006,0 -2.2148605,-0.291211 -2.759306,-0.773255 C 4.4790634,32.553122 4.2348762,31.477799 4.2348762,29.405835 l 0,-5.948201 c 0,-2.071971 0.2441872,-3.149104 1.0545243,-3.88709 0.5444455,-0.482038 1.1124054,-0.773255 2.759306,-0.773255 l 4.5671905,0 c 1.645998,0 2.213054,0.291217 2.758404,0.773255 0.811242,0.738891 1.055426,1.815119 1.055426,3.88709 l 0,5.948201 c 0,2.071964 -0.244184,3.147287 -1.055426,3.886179 -0.54535,0.482044 -1.112406,0.773255 -2.758404,0.773255 l -4.5671905,0 M 7.2365606,29.25932 c 0,0.795866 0.047022,1.076229 0.2206728,1.267056 0.1618863,0.178168 0.3708014,0.256846 1.0671853,0.256846 l 3.6157683,0 c 0.696382,0 0.903489,-0.07867 1.066279,-0.256846 0.174555,-0.190827 0.220672,-0.47119 0.220672,-1.267056 l 0,-5.656082 c 0,-0.795866 -0.04612,-1.076229 -0.220672,-1.266151 -0.162795,-0.179071 -0.369897,-0.257751 -1.066279,-0.257751 l -3.6157683,0 c -0.6963839,0 -0.905299,0.07867 -1.0671853,0.257751 -0.1736429,0.189922 -0.2206728,0.470285 -0.2206728,1.266151 l 0,5.656082 0,0 m 8.9960094,9.868749 -11.8475641,0 0,-3.640186 11.8475641,0 0,3.640186 m 0,6.149878 0,4.805954 -5.541224,-6.486314 -6.3063401,7.315639 0,-5.14238 6.1788201,-6.642777 5.668744,6.149878 m 0,6.30634 0,3.641094 -11.8475641,0 0,-3.641094 m 0,17.520831 2.0638275,-1.077134 0,-7.044326 -2.0629231,-1.064472 0,-4.021839 11.8466597,6.452849 0,4.525588 -11.8475641,6.451948 0,-4.222614 m 4.6368284,-6.856214 0,4.526492 4.2895407,-2.263695 -4.2895407,-2.262797"
     id="path4"
     style="fill:#000000"
     inkscape:connector-curvature="0" />
</svg>
