<?xml version="1.0" encoding="UTF-8" standalone="no"?>
<!-- Created with Inkscape (http://www.inkscape.org/) -->

<svg
   xmlns:dc="http://purl.org/dc/elements/1.1/"
   xmlns:cc="http://creativecommons.org/ns#"
   xmlns:rdf="http://www.w3.org/1999/02/22-rdf-syntax-ns#"
   xmlns:svg="http://www.w3.org/2000/svg"
   xmlns="http://www.w3.org/2000/svg"
   xmlns:sodipodi="http://sodipodi.sourceforge.net/DTD/sodipodi-0.dtd"
   xmlns:inkscape="http://www.inkscape.org/namespaces/inkscape"
   width="35"
   height="6"
   viewBox="0 0 35 6.0000001"
   id="svg2"
   version="1.1"
   inkscape:version="0.91 r13725"
   sodipodi:docname="logo snooper pour gps.svg"
   inkscape:export-filename="C:\Users\Clark\Desktop\path3359.png"
   inkscape:export-xdpi="90"
   inkscape:export-ydpi="90">
  <defs
     id="defs4" />
  <sodipodi:namedview
     id="base"
     pagecolor="#ffffff"
     bordercolor="#666666"
     borderopacity="1.0"
     inkscape:pageopacity="0.0"
     inkscape:pageshadow="2"
     inkscape:zoom="15.839192"
     inkscape:cx="32.935681"
     inkscape:cy="5.5041086"
     inkscape:document-units="px"
     inkscape:current-layer="layer1"
     showgrid="false"
     units="px"
     inkscape:window-width="1920"
     inkscape:window-height="1017"
     inkscape:window-x="-8"
     inkscape:window-y="-8"
     inkscape:window-maximized="1" />
  <metadata
     id="metadata7">
    <rdf:RDF>
      <cc:Work
         rdf:about="">
        <dc:format>image/svg+xml</dc:format>
        <dc:type
           rdf:resource="http://purl.org/dc/dcmitype/StillImage" />
        <dc:title></dc:title>
      </cc:Work>
    </rdf:RDF>
  </metadata>
  <g
     inkscape:label="Calque 1"
     inkscape:groupmode="layer"
     id="layer1"
     transform="translate(0,-1046.3622)">
    <path
       inkscape:connector-curvature="0"
       id="path3359"
       d="m 2.6150535,1052.3443 c -0.020308,0 -0.043103,-0.018 -0.050548,-0.018 -0.00751,0 -0.029692,0 -0.049283,0 -0.1019067,0.02 -0.6122419,-0.1258 -0.8417549,-0.2407 -0.1044006,-0.052 -0.1287053,-0.07 -0.1821026,-0.1388 -0.1682528,-0.212 -0.3225167,-0.528 -0.3897755,-0.7981 -0.048846,-0.1963 -0.068636,-0.3665 -0.068888,-0.5931 -5.523e-4,-0.4505 0.08935,-0.8294 0.2945478,-1.242 0.1659624,-0.3336 0.3401065,-0.5741 0.616171,-0.8505 0.2829589,-0.2836 0.5258394,-0.4568 0.8810391,-0.6285 0.394726,-0.1909 0.7830621,-0.2821 1.2003446,-0.2821 0.4116312,-2e-4 0.7182596,0.068 1.0842159,0.2431 0.1346441,0.065 0.3535006,0.2083 0.3998037,0.2633 0.113838,0.135 0.2976727,0.6941 0.3213917,0.9768 0.029907,0.3565 0.031017,0.3915 0.01854,0.5802 -0.022077,0.3343 -0.1057253,0.7077 -0.2094743,0.9354 -0.2034092,0.4466 -0.3616852,0.676 -0.6796164,0.9855 -0.3014299,0.2935 -0.6213865,0.499 -1.0037789,0.6444 -0.1345053,0.052 -0.4174638,0.1258 -0.4793082,0.1258 -0.027428,0 -0.055136,0 -0.061582,0.019 -0.023069,0.022 -0.2544539,0.039 -0.5064398,0.037 -0.1410953,0 -0.2731622,0 -0.2934881,0 z m -0.1478241,-0.1462 c -0.1431933,-0.209 -0.2449276,-0.4718 -0.2908334,-0.7506 -0.020641,-0.1258 -0.021196,-0.5126 -0.00111,-0.6342 0.039411,-0.2362 0.098306,-0.429 0.1941202,-0.6355 0.3493116,-0.7526 1.0493043,-1.3124 1.8416271,-1.4728 0.1229829,-0.026 0.1747781,-0.028 0.4175141,-0.028 0.2555397,0 0.2889897,0 0.4297434,0.035 0.2269693,0.05 0.4730721,0.1554 0.6379878,0.2736 0.1211883,0.087 0.076945,0.026 -0.079042,-0.1073 -0.4061728,-0.3488 -0.8701945,-0.5345 -1.3987817,-0.5597 -1.0294742,-0.048 -1.9576719,0.5874 -2.2917127,1.5722 -0.1299374,0.383 -0.1540719,0.8235 -0.067349,1.2292 0.064833,0.3033 0.2175487,0.6363 0.4074918,0.8883 0.07318,0.098 0.2441055,0.2865 0.2517047,0.279 0.00281,0 -0.020197,-0.043 -0.05154,-0.089 z m 0.9146275,0.018 c -0.090758,-0.1387 -0.1558647,-0.3023 -0.1930287,-0.4842 -0.046463,-0.2275 -0.017872,-0.567 0.068081,-0.8088 0.153972,-0.4329 0.5243376,-0.8486 0.9345936,-1.049 0.2607507,-0.1277 0.4548939,-0.1721 0.7451212,-0.1721 0.1824819,0 0.2173768,0 0.3420373,0.035 0.095873,0.024 0.1825577,0.057 0.2801931,0.1054 0.07775,0.039 0.1413599,0.067 0.1413599,0.061 0,-0.033 -0.2418095,-0.2065 -0.3918507,-0.282 -0.215181,-0.1073 -0.4270177,-0.1609 -0.68013,-0.1702 -0.2175153,0 -0.3834624,0.018 -0.57574,0.08 -0.2654192,0.087 -0.4493906,0.202 -0.6499911,0.4033 -0.2597791,0.2605 -0.4071115,0.5519 -0.4676252,0.9249 -0.073565,0.4532 0.066394,0.9461 0.3705148,1.3045 0.065943,0.078 0.1145946,0.111 0.076459,0.052 z m 4.3729963,-0.078 c -0.00766,0 -0.1199969,-0.02 -0.1761342,-0.018 -0.04895,0 -0.4137499,-0.081 -0.6345772,-0.1424 -0.1712499,-0.048 -0.2585861,-0.078 -0.2587356,-0.089 -0.00326,-0.232 -3.85e-5,-1.077 0.00385,-1.0809 0.00281,0 0.071315,0.02 0.1517519,0.052 0.080436,0.031 0.1684193,0.067 0.1955115,0.076 0.2312967,0.089 0.620002,0.185 0.8005409,0.1966 0.1432248,0.019 0.3297798,0 0.4148646,-0.018 0.3855436,-0.091 0.5903657,-0.3809 0.519729,-0.7343 -0.023565,-0.1184 -0.1429325,-0.2595 -0.2751921,-0.3263 -0.080825,-0.041 -0.441263,-0.1517 -0.5793451,-0.1795 -0.1974876,-0.039 -0.534696,-0.1739 -0.7051857,-0.2845 -0.1110184,-0.072 -0.2759872,-0.2316 -0.3513484,-0.341 -0.1418187,-0.2057 -0.208353,-0.3846 -0.2619365,-0.7045 -0.021855,-0.1295 -0.00222,-0.447 0.035931,-0.5848 0.034719,-0.1258 0.062516,-0.2093 0.086177,-0.2612 0.014505,-0.032 0.026377,-0.063 0.026377,-0.067 0,-0.018 0.1116085,-0.2024 0.1711574,-0.2879 0.080686,-0.1166 0.2740666,-0.3038 0.3976567,-0.386 0.2406943,-0.1591 0.5399114,-0.2464 0.9029549,-0.2604 0.2049707,0 0.1502126,0 0.4187441,0 0.1219284,0 0.2363574,0.018 0.2542935,0.024 0.017927,0 0.034983,0.019 0.037916,0 0.00955,0 0.4296834,0.087 0.4678736,0.1073 0.020641,0.018 0.022018,0.046 0.022018,0.5471 0,0.3373 -0.00437,0.5352 -0.011915,0.5352 -0.00659,0 -0.032897,-0.018 -0.058504,-0.022 -0.090138,-0.046 -0.3309382,-0.135 -0.4283632,-0.1609 -0.054189,-0.018 -0.1151571,-0.03 -0.1354785,-0.037 -0.036974,-0.018 -0.074229,-0.018 -0.2586364,-0.031 -0.1053164,0 -0.3072752,0 -0.4008857,0.037 -0.1713998,0.05 -0.3442903,0.1813 -0.4106432,0.3121 -0.1157417,0.2283 -0.080433,0.5023 0.081872,0.635 0.1121433,0.092 0.2707842,0.1554 0.6372859,0.2534 0.2494482,0.067 0.3965985,0.111 0.4772456,0.1406 0.028811,0.018 0.075029,0.028 0.1027559,0.039 0.2437686,0.091 0.4693361,0.2979 0.6410834,0.5879 0.1479832,0.25 0.2286864,0.6461 0.1969083,0.9664 -0.04129,0.4164 -0.1849166,0.7317 -0.4562454,1.0014 -0.2335866,0.2322 -0.5243102,0.3791 -0.9166413,0.4627 -0.1285609,0.028 -0.1899314,0.033 -0.4330613,0.039 -0.155798,0 -0.2870085,0 -0.291572,0 z m 9.2822858,0 c -0.02031,0 -0.06466,-0.018 -0.09853,-0.018 -0.113992,0 -0.243283,-0.02 -0.406432,-0.063 -0.05419,-0.018 -0.119214,-0.03 -0.144502,-0.037 -0.04625,-0.019 -0.06717,-0.019 -0.224976,-0.08 -0.09924,-0.039 -0.328786,-0.1536 -0.393987,-0.1974 -0.02439,-0.019 -0.04686,-0.03 -0.04989,-0.03 -0.01165,0 -0.188083,-0.1295 -0.276606,-0.2038 -0.351618,-0.2933 -0.619405,-0.6653 -0.795159,-1.1051 -0.06104,-0.1517 -0.134037,-0.4257 -0.152205,-0.5693 -0.0068,-0.054 -0.01793,-0.1406 -0.02456,-0.1914 -0.01066,-0.082 -0.008,-0.3704 0.0044,-0.4922 0.0099,-0.096 0.03123,-0.2429 0.04199,-0.2893 0.0063,-0.028 0.01717,-0.078 0.02411,-0.111 0.02345,-0.1147 0.109396,-0.3562 0.177392,-0.4997 0.378137,-0.798 1.132452,-1.3687 2.00205,-1.5149 0.03869,0 0.09531,-0.019 0.125797,-0.02 0.03047,0 0.202289,0 0.381796,0 0.262543,0 0.344444,0 0.418744,0.022 0.05083,0.018 0.133938,0.03 0.184739,0.041 0.263102,0.057 0.551121,0.1776 0.815493,0.3459 0.622672,0.3945 1.076344,1.0734 1.20445,1.8022 0.0078,0.044 0.01931,0.1055 0.02577,0.1351 0.0065,0.03 0.0161,0.135 0.02135,0.2323 0.02671,0.4875 -0.06701,0.9345 -0.286287,1.3656 -0.346142,0.6808 -1.006279,1.2123 -1.731525,1.3944 -0.331199,0.083 -0.721263,0.1221 -0.843649,0.085 z m 0.455616,-1.0514 c 0.310548,-0.061 0.613136,-0.2233 0.846569,-0.4536 0.323262,-0.3192 0.507831,-0.7564 0.507984,-1.2035 1.11e-4,-0.3177 -0.128433,-0.7184 -0.316049,-0.9854 -0.07627,-0.1091 -0.244051,-0.2862 -0.348733,-0.3694 -0.32319,-0.2566 -0.750429,-0.3826 -1.145387,-0.3379 -0.251153,0.03 -0.410455,0.074 -0.603489,0.1739 -0.467106,0.2409 -0.802555,0.6949 -0.885509,1.1983 -0.02589,0.1573 -0.02698,0.4535 -0.0022,0.6065 0.05369,0.3314 0.208801,0.6361 0.453369,0.8908 0.242704,0.2526 0.534421,0.412 0.883887,0.4833 0.151062,0.03 0.445384,0.03 0.609564,0 z m 5.191287,1.051 c -0.157387,-0.019 -0.243405,-0.03 -0.46273,-0.085 -1.247835,-0.3187 -2.102129,-1.4982 -2.020538,-2.7892 0.02192,-0.3467 0.07567,-0.5844 0.203216,-0.8991 0.122605,-0.3023 0.324898,-0.6013 0.579951,-0.8568 0.329174,-0.3298 0.643727,-0.5217 1.10893,-0.6767 0.177886,-0.059 0.48119,-0.1166 0.634278,-0.1203 0.479298,-0.018 0.685363,0.019 1.034547,0.1203 0.785001,0.2427 1.448434,0.8982 1.714577,1.6939 0.05293,0.1573 0.08583,0.2731 0.09535,0.3325 0.0033,0.02 0.01721,0.098 0.0309,0.172 0.03693,0.2004 0.04553,0.5012 0.02031,0.7082 -0.05149,0.4222 -0.193089,0.8189 -0.411046,1.1515 -0.270167,0.4124 -0.651597,0.7545 -1.082803,0.9711 -0.252876,0.1277 -0.615522,0.2367 -0.866052,0.2616 -0.03724,0 -0.08436,0 -0.104696,0.019 -0.08022,0.019 -0.363484,0.019 -0.474164,0 z m 0.363325,-1.026 c 0.201946,-0.018 0.393031,-0.068 0.59117,-0.1702 0.178867,-0.091 0.291116,-0.1721 0.437602,-0.3181 0.25286,-0.2521 0.417029,-0.5596 0.473995,-0.888 0.02048,-0.1184 0.0245,-0.5145 0.0059,-0.5772 -0.005,-0.019 -0.01898,-0.076 -0.0308,-0.1295 -0.01184,-0.054 -0.04686,-0.1628 -0.07785,-0.2402 -0.200937,-0.5047 -0.629599,-0.886 -1.141386,-1.0148 -0.189242,-0.048 -0.337821,-0.057 -0.535746,-0.037 -0.398021,0.043 -0.707789,0.1814 -0.983103,0.4415 -0.251949,0.2375 -0.430215,0.5539 -0.499597,0.8867 -0.03008,0.1443 -0.04784,0.413 -0.03295,0.4983 0.0072,0.041 0.01882,0.1091 0.02588,0.1517 0.01876,0.1128 0.04503,0.2155 0.07456,0.2925 0.01443,0.037 0.03245,0.085 0.04024,0.1054 0.05881,0.1536 0.253487,0.4283 0.393109,0.5556 0.292744,0.267 0.618021,0.4094 1.018775,0.4461 0.06436,0 0.125307,0 0.135482,0 0.01018,0 0.05726,0 0.104697,-0.018 z m -9.778935,1.007 c -0.02031,0 -0.07021,-0.018 -0.110848,-0.03 -0.227213,-0.07 -0.38875,-0.2365 -0.523499,-0.5401 -0.03515,-0.08 -0.07788,-0.1739 -0.09496,-0.2114 -0.01711,-0.037 -0.125168,-0.2757 -0.240182,-0.5297 -0.11502,-0.254 -0.228415,-0.5034 -0.251997,-0.5543 -0.02356,-0.052 -0.131819,-0.289 -0.240529,-0.5295 -0.108705,-0.2405 -0.219348,-0.4836 -0.245867,-0.5402 -0.02649,-0.055 -0.06994,-0.1536 -0.09649,-0.2155 -0.06661,-0.1555 -0.114632,-0.2459 -0.129246,-0.2437 -0.0081,0 -0.01441,0.5678 -0.01848,1.6573 -0.0033,0.9104 -0.01077,1.6601 -0.01645,1.6656 -0.01021,0.019 -0.995213,0.019 -1.030435,0.019 -0.01634,0 -0.01815,-0.2727 -0.01556,-2.3335 0.0033,-2.6066 -0.005,-2.3853 0.09546,-2.5921 0.123838,-0.2552 0.366531,-0.4004 0.669599,-0.4004 0.266392,0 0.453989,0.1277 0.638778,0.4368 0.04978,0.083 0.261489,0.5228 0.404235,0.8398 0.04537,0.1 0.100675,0.2218 0.122917,0.2692 0.02223,0.048 0.07198,0.1554 0.110531,0.2401 0.03858,0.085 0.08271,0.1813 0.09812,0.2155 0.07755,0.1702 0.15236,0.3327 0.205859,0.4468 0.03267,0.07 0.05937,0.1314 0.05937,0.1369 0,0 0.01523,0.041 0.03388,0.078 0.03421,0.067 0.07297,0.1517 0.133303,0.2862 0.126155,0.2827 0.164506,0.3412 0.18146,0.2765 0.0038,-0.019 0.0072,-0.7332 0.0078,-1.5982 l 0.0011,-1.5725 0.52628,0 0.52628,0 -0.0011,2.1923 c -0.0011,2.0775 -0.0066,2.4655 -0.03665,2.5802 -0.02379,0.091 -0.05571,0.1881 -0.07183,0.2192 -0.06641,0.1277 -0.219188,0.2507 -0.379397,0.3038 -0.09311,0.03 -0.237476,0.048 -0.311568,0.035 z m 12.839472,-0.063 -0.08005,0 0.0011,-2.143 c 5.52e-4,-1.1787 0.0028,-2.1651 0.0044,-2.1923 0.03306,-0.4437 0.153503,-0.6709 0.42381,-0.7996 0.121015,-0.057 0.223582,-0.087 0.374312,-0.1073 0.149118,-0.018 0.657983,-0.028 0.804514,-0.018 0.07054,0 0.146583,0.018 0.168951,0.018 0.217611,0.024 0.466328,0.1054 0.625299,0.2025 0.328077,0.2021 0.567308,0.5334 0.668519,0.9256 0.06627,0.2566 0.0649,0.517 -0.0044,0.8039 -0.07056,0.2929 -0.224464,0.5598 -0.445247,0.7724 -0.224297,0.2159 -0.427591,0.3155 -0.798819,0.3917 -0.139497,0.03 -0.341727,0.052 -0.446642,0.052 -0.03885,-2e-4 -0.112189,0 -0.162993,0 -0.05078,0 -0.104826,0 -0.12007,0 l -0.02772,0 0,1.0338 c 0,0.8135 -0.0033,1.0359 -0.01536,1.0438 -0.01832,0.018 -0.854325,0.018 -0.969886,0 z m 1.416661,-3.118 c 0.260442,-0.031 0.418932,-0.1387 0.508956,-0.3463 0.04856,-0.111 0.06312,-0.2074 0.04509,-0.2968 -0.04177,-0.207 -0.169321,-0.3704 -0.341342,-0.4375 -0.05282,-0.02 -0.132041,-0.041 -0.176055,-0.048 -0.08964,-0.018 -0.449838,-0.018 -0.4606,0 -0.005,0 -0.01073,0.847 -0.0076,1.123 2.17e-4,0.018 0.01628,0.022 0.163752,0.022 0.08993,0 0.210474,0 0.267876,-0.018 z m 2.820053,3.1148 c -0.178053,-0.018 -0.212755,-0.022 -0.301745,-0.048 -0.13822,-0.041 -0.213896,-0.085 -0.314058,-0.185 -0.09859,-0.098 -0.166971,-0.2114 -0.201852,-0.3326 -0.02224,-0.078 -0.05386,-0.2498 -0.05424,-0.2955 -0.0028,-0.3408 5.53e-4,-3.5237 0.0039,-3.5718 0.0067,-0.1036 0.05149,-0.2882 0.09064,-0.3731 0.07739,-0.1684 0.231467,-0.3219 0.379285,-0.3786 0.181439,-0.07 0.29425,-0.076 1.27868,-0.078 l 0.849807,0 0.0033,0.492 c 0.0017,0.2705 -0.0017,0.4965 -0.0076,0.5025 -0.0059,0 -0.346298,0.019 -0.756428,0.019 -0.410124,0 -0.754519,0 -0.765314,0 -0.01758,0 -0.01965,0.063 -0.01965,0.511 l 0,0.5034 0.02771,0 c 0.01517,0 0.335906,0 0.712587,0 l 0.684881,0 0.0078,0.1535 c 0.01018,0.1987 0.01018,0.4983 -1.06e-4,0.6877 l -0.0081,0.1499 -0.709364,0 -0.709364,0 -0.0033,0.6049 -0.0033,0.605 0.05127,0 c 0.02821,0 0.376029,0 0.772948,0 l 0.721663,0 0,0.509 0,0.5089 -0.812858,0 c -0.447073,0 -0.859969,0 -0.917547,0 z m 2.321575,0 -0.04929,0 0.0033,-2.2254 c 0.0017,-1.2242 0.005,-2.2534 0.008,-2.2873 0.02875,-0.3658 0.2976,-0.6814 0.629296,-0.7384 0.08706,-0.019 0.172151,-0.019 0.936238,0 0.422398,0 0.494939,0.018 0.683541,0.078 0.392402,0.1295 0.736902,0.4304 0.926497,0.8102 0.04703,0.094 0.0857,0.2109 0.114096,0.3448 0.0945,0.4454 -0.06342,0.9312 -0.404765,1.2455 -0.147027,0.1351 -0.269834,0.2187 -0.540382,0.3667 -0.05819,0.031 -0.102736,-0.057 0.485447,0.968 0.172984,0.3015 0.328506,0.573 0.345625,0.6035 0.01702,0.03 0.09554,0.1683 0.17426,0.3043 0.07872,0.1369 0.143141,0.2531 0.143141,0.2577 0,0 0.0076,0.018 0.01665,0.028 0.0093,0.018 0.03339,0.05 0.05363,0.087 0.02031,0.037 0.04906,0.089 0.06388,0.1129 0.0148,0.026 0.02257,0.048 0.01721,0.05 -0.0056,0 -0.292104,0 -0.637127,0 l -0.627309,0 -0.06614,-0.1222 c -0.03637,-0.067 -0.101182,-0.1896 -0.144011,-0.271 -0.08631,-0.1647 -0.264613,-0.5006 -0.345664,-0.6527 -0.02886,-0.054 -0.08438,-0.1591 -0.123364,-0.234 -0.03902,-0.074 -0.108119,-0.2047 -0.153595,-0.2894 -0.08942,-0.1665 -0.168728,-0.3164 -0.290242,-0.5482 -0.152429,-0.2908 -0.167803,-0.5119 -0.04962,-0.7136 0.0521,-0.089 0.177164,-0.1794 0.315078,-0.2284 0.154205,-0.054 0.170411,-0.061 0.273158,-0.1092 0.05695,-0.026 0.117962,-0.052 0.135612,-0.055 0.04216,-0.019 0.181956,-0.148 0.223023,-0.2178 0.0694,-0.1202 0.08808,-0.3071 0.04294,-0.431 -0.07239,-0.1987 -0.275906,-0.3532 -0.502312,-0.3813 -0.117518,-0.019 -0.60281,-0.019 -0.625734,0 -0.01147,0 -0.01554,0.4936 -0.01776,2.132 l -0.0028,2.123 -0.480325,0 c -0.264176,0 -0.502494,0 -0.52959,0 z m -31.2951941,-0.1313 c -0.2754528,-0.1739 -0.52893952,-0.4007 -0.74145559,-0.6623 -0.3006076,-0.3703 -0.52523085,-0.8811 -0.60050865,-1.3658 -0.0284266583,-0.1831 -0.03807857,-0.5533 -0.01948701,-0.7469 0.06356728,-0.6625 0.33437232,-1.2564 0.79077238,-1.7344 0.28456477,-0.2981 0.57222447,-0.5003 0.96494177,-0.6783 0.2160205,-0.098 0.5627825,-0.1868 0.8433788,-0.2161 0.1836511,-0.018 0.6462767,0 0.7946572,0.019 0.4939441,0.091 0.8939417,0.2602 1.2747117,0.5408 0.1520109,0.111 0.4874596,0.4479 0.6039525,0.605 0.08888,0.1203 0.1965877,0.2949 0.1965877,0.3195 0,0 -0.031838,-0.018 -0.070812,-0.055 -0.096238,-0.092 -0.2412687,-0.217 -0.3233011,-0.2771 -0.037255,-0.028 -0.098379,-0.072 -0.1358356,-0.1 -0.1540589,-0.1129 -0.4418796,-0.2578 -0.6523861,-0.3281 -0.296629,-0.098 -0.5476543,-0.1369 -0.8929154,-0.1369 -0.4585798,0 -0.8143873,0.083 -1.2192851,0.2824 -0.3054803,0.1498 -0.5062355,0.2947 -0.7459255,0.5361 -0.2294916,0.2313 -0.3933079,0.4562 -0.52877526,0.7262 -0.29918896,0.5961 -0.38027197,1.2849 -0.22612405,1.9211 0.11606731,0.479 0.32534311,0.8755 0.65409651,1.239 0.069428,0.078 0.1262391,0.1425 0.1262391,0.1462 0,0.018 -0.034598,0 -0.092508,-0.033 z"
       style="fill:#000000"
       inkscape:export-filename="C:\Users\Clark\Desktop\path3359.png"
       inkscape:export-xdpi="90"
       inkscape:export-ydpi="90" />
  </g>
</svg>
