<?xml version="1.0" encoding="UTF-8" standalone="no"?>
<!-- Created with Inkscape (http://www.inkscape.org/) -->

<svg
   xmlns:dc="http://purl.org/dc/elements/1.1/"
   xmlns:cc="http://creativecommons.org/ns#"
   xmlns:rdf="http://www.w3.org/1999/02/22-rdf-syntax-ns#"
   xmlns:svg="http://www.w3.org/2000/svg"
   xmlns="http://www.w3.org/2000/svg"
   xmlns:sodipodi="http://sodipodi.sourceforge.net/DTD/sodipodi-0.dtd"
   xmlns:inkscape="http://www.inkscape.org/namespaces/inkscape"
   width="93"
   height="161"
   viewBox="0 0 93.000001 161.00001"
   id="svg2"
   version="1.1"
   inkscape:version="0.91 r13725"
   sodipodi:docname="apple iphone.svg"
   inkscape:export-filename="C:\Users\Clark\Desktop\path3378.png"
   inkscape:export-xdpi="90"
   inkscape:export-ydpi="90">
  <defs
     id="defs4" />
  <sodipodi:namedview
     id="base"
     pagecolor="#ffffff"
     bordercolor="#666666"
     borderopacity="1.0"
     inkscape:pageopacity="0.0"
     inkscape:pageshadow="2"
     inkscape:zoom="2.8"
     inkscape:cx="4.5589148"
     inkscape:cy="30.115554"
     inkscape:document-units="px"
     inkscape:current-layer="g3376"
     showgrid="false"
     inkscape:window-width="1920"
     inkscape:window-height="1017"
     inkscape:window-x="-8"
     inkscape:window-y="-8"
     inkscape:window-maximized="1"
     units="px" />
  <metadata
     id="metadata7">
    <rdf:RDF>
      <cc:Work
         rdf:about="">
        <dc:format>image/svg+xml</dc:format>
        <dc:type
           rdf:resource="http://purl.org/dc/dcmitype/StillImage" />
        <dc:title></dc:title>
      </cc:Work>
    </rdf:RDF>
  </metadata>
  <g
     inkscape:label="Calque 1"
     inkscape:groupmode="layer"
     id="layer1"
     transform="translate(0,-891.36214)">
    <g
       id="g3376"
       transform="translate(-1395.0208,-473.76155)">
      <path
         style="fill:#000000"
         d="m 1440.4763,1518.1945 c -0.7347,-0.1013 -1.3101,-0.5076 -1.626,-1.1495 -0.2306,-0.4683 -0.2728,-0.6667 -0.271,-1.2721 0,-0.5751 0.043,-0.7888 0.237,-1.2033 0.2914,-0.6249 0.7846,-1.054 1.4036,-1.221 0.2487,-0.068 0.3412,-0.074 0.7644,-0.06 0.5504,0.019 0.7916,0.08 1.1484,0.2911 0.4421,0.2609 0.7761,0.6901 0.9568,1.23 0.086,0.2556 0.092,0.3175 0.093,0.8767 0,0.6918 -0.032,0.8652 -0.2655,1.341 -0.2699,0.5517 -0.8058,0.9782 -1.4004,1.1141 -0.3001,0.069 -0.7562,0.092 -1.041,0.052 z m 0.9071,-0.7959 c 0.9023,-0.5288 1.0853,-2.2947 0.3174,-3.0626 -0.5464,-0.5464 -1.3602,-0.4639 -1.7905,0.1814 -0.5375,0.8061 -0.434,2.1181 0.2137,2.7101 0.2526,0.2307 0.4039,0.2825 0.7932,0.271 0.2645,-0.011 0.3345,-0.023 0.4662,-0.1003 z m 9.4686,0.7973 c -0.6209,-0.068 -1.0886,-0.2819 -1.4564,-0.669 -0.2694,-0.2837 -0.4164,-0.5565 -0.5227,-0.9703 -0.262,-1.0185 0.055,-2.2357 0.7288,-2.7961 0.2288,-0.1905 0.6106,-0.3834 0.8831,-0.4462 0.2634,-0.061 0.8392,-0.051 1.1065,0.018 0.6867,0.1772 1.1745,0.7311 1.3416,1.5236 0.04,0.1848 0.065,0.2596 0.07,0.1958 0.014,-0.2164 0.062,0.2039 0.064,0.5672 l 0,0.3611 -1.6418,0 -1.6417,0 -0.012,0.1128 c -0.028,0.2994 0.171,0.806 0.3992,1.0118 0.1711,0.1541 0.338,0.2424 0.607,0.3205 0.2935,0.085 1.0507,0.055 1.4864,-0.059 l 0.3155,-0.082 0.071,0.2838 c 0.04,0.1561 0.071,0.3053 0.071,0.3319 0,0.1081 -0.5469,0.2453 -1.1824,0.2966 -0.244,0.02 -0.4451,0.033 -0.4471,0.031 0,0 -0.1116,-0.017 -0.2444,-0.03 z m 1.1983,-2.9627 c 0.027,-0.042 0.025,-0.1239 0,-0.2868 -0.073,-0.4288 -0.3094,-0.7766 -0.6263,-0.923 -0.2459,-0.114 -0.679,-0.1034 -0.9357,0.023 -0.2421,0.1185 -0.452,0.3433 -0.5836,0.6243 -0.1209,0.2582 -0.1685,0.5606 -0.095,0.607 0.027,0.018 0.5339,0.027 1.1275,0.023 0.9724,-0.011 1.083,-0.014 1.1161,-0.068 z m -25.1956,2.5424 c -0.012,-0.1938 -0.018,-1.2653 -0.012,-2.3808 l 0.012,-2.0286 0.4813,0 0.4813,0 0.011,2.3809 0.012,2.3809 -0.4783,0 -0.4783,0 z m 2.0787,-2.9265 0,-3.2788 0.3869,-0.048 c 0.579,-0.071 1.8534,-0.062 2.2262,0.017 1.0053,0.2103 1.5793,0.8937 1.581,1.8823 0,0.9882 -0.5913,1.763 -1.5481,2.0227 -0.3627,0.099 -0.8358,0.1481 -1.2824,0.1347 l -0.3837,-0.012 -0.012,1.2808 -0.012,1.2806 -0.4808,0 -0.481,0 z m 2.0342,-0.071 c 0.1387,-0.027 0.3141,-0.075 0.3897,-0.107 0.4913,-0.2081 0.7736,-0.661 0.7736,-1.2412 0,-0.6158 -0.343,-1.0081 -1.0205,-1.1675 -0.2839,-0.068 -1.0731,-0.053 -1.161,0.019 -0.046,0.039 -0.053,0.2016 -0.053,1.2414 0,0.9206 0.011,1.2032 0.043,1.2237 0.1332,0.082 0.6793,0.099 1.0284,0.031 z m 5.901,1.7423 c -0.011,-1.6028 -0.011,-1.608 -0.092,-1.8109 -0.3499,-0.8682 -1.5192,-0.871 -1.9159,-0.011 -0.1371,0.2997 -0.151,0.48 -0.151,1.9662 l 0,1.422 -0.4813,0 -0.4814,0 0,-2.5214 c 0,-1.3868 -0.011,-2.9418 -0.023,-3.4554 l -0.023,-0.9339 0.504,0 0.5041,0 0,1.3888 c 0,1.2856 0.012,1.3905 0.061,1.4116 0.043,0.018 0.1003,-0.023 0.2104,-0.1521 0.2842,-0.33 0.6288,-0.5005 1.0909,-0.5395 0.6925,-0.059 1.2738,0.2403 1.5448,0.7943 0.2004,0.4097 0.2002,0.4067 0.2142,2.2972 l 0.013,1.7449 -0.4818,0 -0.4817,0 z m 7.0897,0.5329 c 0,-0.5909 -0.011,-1.6663 -0.023,-2.3896 l -0.023,-1.3151 0.4352,0 0.4355,0 0,0.1151 c 0,0.2634 0.046,0.5446 0.092,0.5624 0.028,0.011 0.1413,-0.076 0.2804,-0.2179 0.2632,-0.2673 0.5098,-0.4047 0.8588,-0.4787 0.9626,-0.204 1.7671,0.2813 1.9828,1.1961 0.042,0.1742 0.051,0.5372 0.051,1.9085 l 0,1.6934 -0.4812,0 -0.4815,0 0,-1.508 c 0,-0.8766 -0.015,-1.5853 -0.034,-1.6923 -0.1003,-0.5283 -0.4625,-0.8605 -0.945,-0.8663 -0.5526,-0.012 -0.9762,0.3524 -1.1349,0.9617 -0.042,0.1595 -0.051,0.473 -0.051,1.6509 l 0,1.454 -0.4814,0 -0.4813,0 0,-1.0744 z m -16.9028,-4.6136 c -0.06,-0.025 -0.152,-0.1047 -0.2063,-0.1765 -0.087,-0.1151 -0.099,-0.158 -0.099,-0.3731 0,-0.1967 0.015,-0.264 0.076,-0.3508 0.2239,-0.3141 0.8072,-0.3043 1.0256,0.018 0.1269,0.1867 0.1198,0.4945 -0.017,0.6816 -0.1631,0.225 -0.5173,0.3165 -0.7814,0.2016 z"
         id="path3378"
         inkscape:connector-curvature="0"
         sodipodi:nodetypes="cscsssssssscsssssscssssscccccccssscssccccccssscsccsscccccccsccsscscccccccscsssscssssscccsscccsssssscccscscccscsscscccscscsccccccsscssc" />
      <path
         style="fill:#000000"
         d="m 1435.2382,1396.3046 c -0.69,-0.217 -1.7627,-1.1376 -2.6012,-2.2323 -2.7627,-4.123 -3.4388,-7.4391 -3.3059,-11.1762 0.019,-0.537 0.5898,-2.2553 0.9471,-2.8517 1.2326,-2.0571 3.3521,-3.3432 5.5099,-3.3432 0.7275,0 1.132,0.094 2.2689,0.5296 1.784,0.6829 2.213,0.6824 4.1724,-0.012 0.8267,-0.2899 1.8515,-0.5636 2.2772,-0.6081 1.5833,-0.1655 3.3142,0.4435 4.6833,1.6479 l 0.7482,0.6581 -0.6423,0.5619 c -0.864,0.7558 -1.6347,1.9441 -1.9638,3.0277 -0.4211,1.386 -0.3125,2.814 0.3124,4.1105 0.515,1.0683 1.6043,2.2865 2.453,2.7433 0.5649,0.3039 0.5586,0.4025 -0.1172,1.8421 -1.0045,2.1397 -2.9155,4.5357 -3.9684,4.9754 -0.8081,0.3378 -1.872,0.2454 -3.1986,-0.2775 -0.824,-0.325 -1.4652,-0.4869 -2.0976,-0.53 -0.8174,-0.055 -1.0682,-0.012 -2.4433,0.4603 -1.8971,0.6469 -2.2767,0.7052 -3.0341,0.467 z m 4.8676,-20.9214 c 0.2726,-2.4717 1.8532,-4.3354 4.2373,-4.9965 l 0.8195,-0.2272 0,0.5471 c 0,0.6277 -0.2977,1.7155 -0.669,2.4446 -0.5889,1.156 -2.0215,2.3265 -3.3084,2.7028 -1.1301,0.3304 -1.1661,0.3146 -1.0794,-0.4708 z"
         id="path3378-0"
         inkscape:connector-curvature="0"
         sodipodi:nodetypes="cccsscccscsscssssscccsccsscs" />
    </g>
  </g>
</svg>
